<svg width="8" height="15" viewBox="0 0 8 15" fill="none" xmlns="http://www.w3.org/2000/svg">
<path d="M0 1.88888C0 1.62221 0.1 1.38888 0.3 1.18888C0.5 0.988876 0.733333 0.888876 1 0.888876L7 0.888876C7.25556 0.888876 7.48611 0.988876 7.69167 1.18888C7.89722 1.38888 8 1.62221 8 1.88888V13.2222C8 13.4889 7.89722 13.7222 7.69167 13.9222C7.48611 14.1222 7.25556 14.2222 7 14.2222H1C0.733333 14.2222 0.5 14.1222 0.3 13.9222C0.1 13.7222 0 13.4889 0 13.2222L0 1.88888ZM1 1.88888L1 13.2222H7V11.0555H4V10.0555H7L7 8.05554H4V7.05554H7V5.05554H4V4.05554H7V1.88888L1 1.88888ZM4 4.05554V5.05554V4.05554ZM4 7.05554V8.05554V7.05554ZM4 10.0555V11.0555V10.0555Z" fill="#1D1D1D"/>
</svg>
