<svg width="11" height="13" viewBox="0 0 11 13" fill="none" xmlns="http://www.w3.org/2000/svg">
<path d="M1.11665 11.5555H9.88331L8.83331 4.22221H2.16665L1.11665 11.5555ZM5.49998 3.22221C5.78887 3.22221 6.02776 3.12499 6.21665 2.93054C6.40554 2.7361 6.49998 2.49999 6.49998 2.22221C6.49998 1.93332 6.40554 1.69443 6.21665 1.50554C6.02776 1.31665 5.78887 1.22221 5.49998 1.22221C5.2222 1.22221 4.98609 1.31665 4.79165 1.50554C4.5972 1.69443 4.49998 1.93332 4.49998 2.22221C4.49998 2.49999 4.5972 2.7361 4.79165 2.93054C4.98609 3.12499 5.2222 3.22221 5.49998 3.22221ZM7.23331 3.22221H8.83331C9.08887 3.22221 9.31109 3.30276 9.49998 3.46387C9.68887 3.62499 9.79998 3.83332 9.83331 4.08887L10.8666 11.4222C10.9111 11.7222 10.8361 11.9861 10.6416 12.2139C10.4472 12.4417 10.1944 12.5555 9.88331 12.5555H1.11665C0.805536 12.5555 0.552758 12.4417 0.358314 12.2139C0.163869 11.9861 0.0888693 11.7222 0.133314 11.4222L1.16665 4.08887C1.19998 3.83332 1.31109 3.62499 1.49998 3.46387C1.68887 3.30276 1.91109 3.22221 2.16665 3.22221H3.76665C3.67776 3.06665 3.61109 2.90832 3.56665 2.74721C3.5222 2.5861 3.49998 2.4111 3.49998 2.22221C3.49998 1.66665 3.69442 1.19443 4.08331 0.805541C4.4722 0.416652 4.94442 0.222208 5.49998 0.222208C6.05554 0.222208 6.52776 0.416652 6.91665 0.805541C7.30554 1.19443 7.49998 1.66665 7.49998 2.22221C7.49998 2.4111 7.47776 2.5861 7.43331 2.74721C7.38887 2.90832 7.3222 3.06665 7.23331 3.22221ZM1.11665 11.5555H9.88331H1.11665Z" fill="#1D1D1D"/>
</svg>
