<svg width="11" height="11" viewBox="0 0 11 11" fill="none" xmlns="http://www.w3.org/2000/svg">
<path d="M1.37636 0.801452C1.10358 0.850602 0.888546 0.966104 0.707921 1.16024C0.565387 1.31138 0.475689 1.47849 0.421625 1.6886C0.394592 1.79673 0.394592 1.79796 0.394592 2.90874V4.02075L0.42654 4.08956C0.49412 4.23333 0.621909 4.31442 0.781646 4.31442C0.941382 4.31442 1.06917 4.23333 1.13675 4.08956L1.1687 4.02075L1.17484 2.93946L1.18099 1.85817L1.21048 1.79673C1.2498 1.71932 1.32475 1.64437 1.40216 1.60505L1.4636 1.57556L2.54489 1.56942L3.62618 1.56327L3.69499 1.53132C3.83875 1.46374 3.91985 1.33595 3.91985 1.17622C3.91985 1.01648 3.83875 0.888693 3.69499 0.821112L3.62618 0.789165L2.54489 0.786707C1.70689 0.785479 1.44394 0.787936 1.37636 0.801452Z" fill="black"/>
<path d="M6.98064 0.79408C6.87005 0.821112 6.76807 0.904666 6.71523 1.01034C6.67468 1.09512 6.67345 1.25363 6.71277 1.33595C6.75824 1.42688 6.80984 1.47972 6.89831 1.52272L6.98064 1.56327L8.25853 1.56942L9.53642 1.57556L9.59417 1.60259C9.6679 1.63577 9.75022 1.71932 9.78954 1.79673L9.81903 1.85817L9.82517 2.93946L9.83132 4.02075L9.86327 4.08956C9.93085 4.23333 10.0586 4.31442 10.2184 4.31442C10.3781 4.31442 10.5059 4.23333 10.5735 4.08956L10.6054 4.02075L10.6091 2.98861C10.6116 2.27717 10.6091 1.91838 10.5993 1.83359C10.5428 1.3421 10.1987 0.946444 9.71336 0.817426L9.61015 0.790393L8.31382 0.787936C7.60115 0.786707 7.00153 0.789165 6.98064 0.79408Z" fill="black"/>
<path d="M0.296282 5.51245C0.185695 5.53949 0.0837096 5.62304 0.0321025 5.72871C-0.0109035 5.81964 -0.0109035 5.96095 0.0333312 6.05556C0.0738797 6.1428 0.140232 6.20915 0.227472 6.2497L0.296282 6.28165H5.5H10.7037L10.7725 6.2497C10.8598 6.20915 10.9261 6.1428 10.9667 6.05556C11.0109 5.96095 11.0109 5.81964 10.9679 5.72871C10.9298 5.6513 10.8561 5.57758 10.7774 5.53826L10.716 5.50754L5.52458 5.50508C2.66898 5.50508 0.31717 5.50754 0.296282 5.51245Z" fill="black"/>
<path d="M0.691948 7.47966C0.573988 7.51038 0.479375 7.58779 0.42654 7.6996L0.394592 7.76841V8.88657V10.0047L0.427768 10.1239C0.54327 10.5417 0.852913 10.8513 1.26946 10.9668L1.38987 11H2.50803H3.62618L3.69499 10.9681C3.83875 10.9005 3.91985 10.7727 3.91985 10.6129C3.91985 10.4532 3.83875 10.3254 3.69499 10.2578L3.62618 10.2259L2.54489 10.2197C1.46728 10.2136 1.4636 10.2136 1.40585 10.1866C1.33212 10.1534 1.24119 10.0625 1.20802 9.98875C1.18099 9.931 1.18099 9.92731 1.17484 8.8497L1.1687 7.76841L1.13675 7.6996C1.0962 7.61359 1.02985 7.54601 0.947526 7.50915C0.87503 7.47597 0.760757 7.46245 0.691948 7.47966Z" fill="black"/>
<path d="M10.0992 7.48949C9.97877 7.53249 9.89767 7.60745 9.84729 7.72172C9.835 7.74752 9.83009 8.00924 9.82518 8.84356L9.81903 9.931L9.78463 9.99612C9.74162 10.0784 9.67527 10.1448 9.59786 10.1829L9.53642 10.2136L8.25853 10.2197L6.98064 10.2259L6.89831 10.2664C6.80984 10.3094 6.75824 10.3623 6.71277 10.4532C6.67345 10.5355 6.67468 10.694 6.71523 10.7788C6.75455 10.8562 6.82828 10.9312 6.90692 10.9693L6.96835 11H8.28311H9.59786L9.70722 10.9717C10.1938 10.8476 10.5477 10.4446 10.6005 9.95188C10.6079 9.87693 10.6116 9.45056 10.6091 8.80055L10.6054 7.76841L10.5722 7.6996C10.5538 7.66274 10.517 7.6099 10.4924 7.5841C10.3941 7.4858 10.2257 7.44402 10.0992 7.48949Z" fill="black"/>
</svg>
